<mxfile host="app.diagrams.net" modified="2021-07-17T09:27:37.741Z" agent="5.0 (Windows NT 10.0; Win64; x64) AppleWebKit/537.36 (KHTML, like Gecko) Chrome/91.0.4472.124 Safari/537.36" etag="E5A0PNA23pKzlII48Udk" version="14.8.6" type="github">
  <diagram id="C5RBs43oDa-KdzZeNtuy" name="Page-1">
    <mxGraphModel dx="1422" dy="762" grid="1" gridSize="10" guides="1" tooltips="1" connect="1" arrows="1" fold="1" page="1" pageScale="1" pageWidth="827" pageHeight="1169" math="0" shadow="0">
      <root>
        <mxCell id="WIyWlLk6GJQsqaUBKTNV-0" />
        <mxCell id="WIyWlLk6GJQsqaUBKTNV-1" parent="WIyWlLk6GJQsqaUBKTNV-0" />
        <mxCell id="Mz5x171u7_vmsWsvcVdv-13" style="edgeStyle=orthogonalEdgeStyle;rounded=0;orthogonalLoop=1;jettySize=auto;html=1;entryX=1;entryY=0.5;entryDx=0;entryDy=0;dashed=1;" edge="1" parent="WIyWlLk6GJQsqaUBKTNV-1" source="Mz5x171u7_vmsWsvcVdv-2" target="Mz5x171u7_vmsWsvcVdv-5">
          <mxGeometry relative="1" as="geometry" />
        </mxCell>
        <mxCell id="Mz5x171u7_vmsWsvcVdv-16" style="edgeStyle=orthogonalEdgeStyle;rounded=0;orthogonalLoop=1;jettySize=auto;html=1;entryX=0.5;entryY=1;entryDx=0;entryDy=0;dashed=1;" edge="1" parent="WIyWlLk6GJQsqaUBKTNV-1" source="Mz5x171u7_vmsWsvcVdv-2" target="Mz5x171u7_vmsWsvcVdv-3">
          <mxGeometry relative="1" as="geometry" />
        </mxCell>
        <mxCell id="Mz5x171u7_vmsWsvcVdv-2" value="Controller" style="rounded=1;whiteSpace=wrap;html=1;" vertex="1" parent="WIyWlLk6GJQsqaUBKTNV-1">
          <mxGeometry x="360" y="470" width="120" height="60" as="geometry" />
        </mxCell>
        <mxCell id="Mz5x171u7_vmsWsvcVdv-17" style="edgeStyle=orthogonalEdgeStyle;rounded=0;orthogonalLoop=1;jettySize=auto;html=1;" edge="1" parent="WIyWlLk6GJQsqaUBKTNV-1" source="Mz5x171u7_vmsWsvcVdv-3">
          <mxGeometry relative="1" as="geometry">
            <mxPoint x="420" y="470" as="targetPoint" />
          </mxGeometry>
        </mxCell>
        <mxCell id="Mz5x171u7_vmsWsvcVdv-18" style="edgeStyle=orthogonalEdgeStyle;rounded=0;orthogonalLoop=1;jettySize=auto;html=1;entryX=1;entryY=0.5;entryDx=0;entryDy=0;" edge="1" parent="WIyWlLk6GJQsqaUBKTNV-1" source="Mz5x171u7_vmsWsvcVdv-3" target="Mz5x171u7_vmsWsvcVdv-4">
          <mxGeometry relative="1" as="geometry" />
        </mxCell>
        <mxCell id="Mz5x171u7_vmsWsvcVdv-3" value="Model" style="rounded=1;whiteSpace=wrap;html=1;" vertex="1" parent="WIyWlLk6GJQsqaUBKTNV-1">
          <mxGeometry x="365" y="330" width="110" height="60" as="geometry" />
        </mxCell>
        <mxCell id="Mz5x171u7_vmsWsvcVdv-4" value="Service" style="rounded=1;whiteSpace=wrap;html=1;" vertex="1" parent="WIyWlLk6GJQsqaUBKTNV-1">
          <mxGeometry x="120" y="330" width="120" height="60" as="geometry" />
        </mxCell>
        <mxCell id="Mz5x171u7_vmsWsvcVdv-11" style="edgeStyle=orthogonalEdgeStyle;rounded=0;orthogonalLoop=1;jettySize=auto;html=1;entryX=0;entryY=0.5;entryDx=0;entryDy=0;" edge="1" parent="WIyWlLk6GJQsqaUBKTNV-1" source="Mz5x171u7_vmsWsvcVdv-5" target="Mz5x171u7_vmsWsvcVdv-6">
          <mxGeometry relative="1" as="geometry" />
        </mxCell>
        <mxCell id="Mz5x171u7_vmsWsvcVdv-5" value="View" style="rounded=1;whiteSpace=wrap;html=1;" vertex="1" parent="WIyWlLk6GJQsqaUBKTNV-1">
          <mxGeometry x="120" y="470" width="120" height="60" as="geometry" />
        </mxCell>
        <mxCell id="Mz5x171u7_vmsWsvcVdv-12" style="edgeStyle=orthogonalEdgeStyle;rounded=0;orthogonalLoop=1;jettySize=auto;html=1;entryX=0.5;entryY=1;entryDx=0;entryDy=0;" edge="1" parent="WIyWlLk6GJQsqaUBKTNV-1" source="Mz5x171u7_vmsWsvcVdv-6" target="Mz5x171u7_vmsWsvcVdv-2">
          <mxGeometry relative="1" as="geometry" />
        </mxCell>
        <mxCell id="Mz5x171u7_vmsWsvcVdv-6" value="Пользователь" style="rounded=1;whiteSpace=wrap;html=1;" vertex="1" parent="WIyWlLk6GJQsqaUBKTNV-1">
          <mxGeometry x="240" y="585" width="110" height="60" as="geometry" />
        </mxCell>
      </root>
    </mxGraphModel>
  </diagram>
</mxfile>
